<svg xmlns="http://www.w3.org/2000/svg" width="18.214" height="23.679" viewBox="333.762 271.752 18.214 23.679"><path d="M349.7 279.95h-1.366v-2.659c0-3-2.391-5.493-5.39-5.538-3.04-.04-5.539 2.436-5.539 5.464v2.732h-1.366a2.283 2.283 0 0 0-2.277 2.277v10.929a2.283 2.283 0 0 0 2.277 2.276h13.66a2.283 2.283 0 0 0 2.278-2.276v-10.929a2.283 2.283 0 0 0-2.277-2.277Zm-6.034 7.103v3.916c0 .427-.33.797-.757.82a.798.798 0 0 1-.837-.797v-3.94a1.822 1.822 0 0 1-1.018-1.804 1.832 1.832 0 0 1 1.684-1.65 1.823 1.823 0 0 1 .928 3.455Zm3.074-7.104h-7.741v-2.732c0-1.03.404-1.998 1.138-2.732a3.837 3.837 0 0 1 2.732-1.139c1.03 0 1.998.405 2.733 1.139a3.837 3.837 0 0 1 1.138 2.732v2.732Z" fill="#568593" fill-rule="evenodd" data-name="Icon ionic-ios-lock"/></svg>