<svg xmlns="http://www.w3.org/2000/svg" width="88.496" height="88.496" viewBox="121.231 33.632 88.496 88.496"><g data-name="Layer 2"><g data-name="Layer 1"><path d="M121.513 77.79a43.976 43.976 0 1 1 0 .1z" fill="#00a651" fill-rule="evenodd" data-name="Ellipse 1"/><path d="M135.473 66.56a30.036 30.036 0 1 1 0 .1z" fill="#fff" fill-rule="evenodd" data-name="Ellipse 2"/><path d="m141.728 69.57 1.33-3.615h3.495l1.33 3.615h-1.078l1.007 5.661 8.129-5.932 1.793-6.77a1.28 1.28 0 0 0-.695-1.49l2.387-9.377 1.259 2.226 1.239-2.589 1.621 2.337 1.43-2.337 1.24 2.488 1.43-2.438 1.188 2.438 1.26-2.014 1.077 2.417 1.199-2.458L174.383 61a1.924 1.924 0 0 0-.503 1.803l1.752 6.698 8.4 5.036.514-5.036h-1.007l1.33-3.616h3.495l1.37 3.686h-1.008l2.015 9.267c5.728-11.873 2.398-26.134-7.995-34.243-10.394-8.11-25.037-7.871-35.16.573-10.124 8.444-12.987 22.806-6.875 34.486l2.015-10.072-.998-.01Z" fill="#2babe2" fill-rule="evenodd" data-name="Path 309"/><path d="M165.59 57.363h1.148v1.964h-1.148v-1.964z" fill="#231f20" fill-rule="evenodd" data-name="Rectangle 8"/><path d="M162.78 73.75v.071a.786.786 0 0 1 .09-.242v.05a.342.342 0 0 1 .081-.17c.06 0 .06 0 .06.07s0-.11.081-.161l.08.07c0-.12.142-.12.192-.16.05-.041.06 0 .06.07s.081-.121.192-.121c.11 0 .06.05.06.07a.212.212 0 0 1 .192-.07v.07l.08-.07c.09.07.252 0 .333.05.08.05-.242.302-.524.494a2.074 2.074 0 0 0-.524.403c-.131.15-.243.315-.332.493-.106.348-.106.72 0 1.068 0-.121-.06-.282 0-.403.08.07 0 .211.06.332a2.88 2.88 0 0 1 .131-.382c.09.08 0 .221.06.292.05-.172 0-.333.142-.454.14-.12 0 .121.08.162 0-.111-.06-.282.08-.403.142-.121.061.05.061.08 0-.12-.06-.292.08-.332.142-.04 0 .11 0 .161.061-.161.061-.383.192-.453s.06.07.06.12c0-.12 0-.332.192-.372.191-.04.06.11.06.161 0-.12.131-.242.192-.383l.262.07c.06-.11.14-.23.272-.21.13.02.06.12 0 .17a4.211 4.211 0 0 0-.857.897 1.853 1.853 0 0 0 .091 1.773c-.06-.111-.141-.323 0-.373.141-.05 0 .12.08.161a2.205 2.205 0 0 1 .081-.705c.06.03.092.096.08.161 0 0 0-.07.061-.07.06 0 .05.12.05.211a.473.473 0 0 0-.05-.564c-.08-.12 0-.211.05-.332.061 0 .091.07.091.161.05-.161 0-.373.08-.544.081.05.051.121.051.171.09-.12-.05-.282.09-.382.142-.101 0 .12.081.17 0-.12-.06-.291.08-.382.142-.09 0 .12 0 .161a.453.453 0 0 1 .253-.403h.08s0 .121-.08.172c.069.004.135.029.191.07a1.008 1.008 0 0 0-.383.403.201.201 0 0 1 .272 0c-.241.07-.463.212-.443.453 0-.07.09-.171.202-.221.11-.05.13 0 .13.05-.19.171-.382.332-.332.574.06-.07.06-.221.202-.221.14 0 .08 0 0 .08a.665.665 0 0 0-.192.725c0-.07-.06-.211 0-.16.06.05.06.12.06.21.091.122 0 .222 0 .333.045.107.075.218.091.332 0-.12-.06-.282 0-.402.068.183.095.379.08.574 0 0 0-.07.061-.07.06 0 0 .16.08.21.004-.293.03-.586.082-.876-.05 0-.081 0-.081-.05s0-.232.06-.232 0 .162.081.212a.352.352 0 0 1 .05-.332c.06 0 .06-.172.141-.05.08.12 0 .07-.05.07s.191.12.242 0c.05-.121 0-.121.06-.172a58.94 58.94 0 0 1 0 5.339.735.735 0 0 1-.09.232c0 .382.14.664-.081 1.007-.05.12.06.241.06.383 0 .372-.282.664-.473 1.007h.524l.443.433.433-.433h.534a3.365 3.365 0 0 1-.524-.887c-.06-.16.141-.322.08-.493a.664.664 0 0 1-.14-.383c-.05-.07 0-.211.06-.282.06-.07-.08-.403-.08-.614-.111-1.761-.111-3.527 0-5.288.08.07 0 .241.19.221.192-.02 0-.221.081-.171.081.05.141.211.141.383.081-.05 0-.242.081-.212.08.03.06.161.06.232 0 .07-.06.05-.09.05.056.289.087.582.09.876.081 0 0-.17.081-.211.08-.04 0 0 0 .07.083-.241.242-.45.453-.594.08.121 0 .282 0 .403.036-.108.063-.22.08-.332.061-.111-.08-.212 0-.333h.061c0-.07-.06-.211.05-.211.111 0 .061.07.061.161a1.007 1.007 0 0 0-.201-.776h.09c.08.041.13.123.131.212.06-.232-.13-.403-.322-.564h.13c.051 0 .192.12.192.211.06-.231-.191-.372-.433-.443.08-.07.242 0 .272 0 0-.11-.14-.16-.14-.282 0-.12-.243-.12-.273-.231-.03-.111 0 0 .08 0 .081 0 .061 0 .061.07h.08v-.171s.192.242.192.383c0-.05 0-.162.06-.162s.081.232.081.373c.08 0 .06-.161.08-.161.02 0 0 .232.091.373 0 0-.06-.111.05-.162.057.176.084.36.081.544 0-.07.06-.12.09-.16a.433.433 0 0 1 .081.23.826.826 0 0 0-.08.666c0-.07-.06-.172 0-.212.06-.04.06 0 .06.07a.342.342 0 0 1 .08-.17c.068.231.096.473.082.715.08-.05 0-.212.08-.172.08.04.06.242 0 .383.372-.55.403-1.263.08-1.843-.241-.333-.634-.574-.906-.907 0 0 0-.11.05-.11.13.02.237.109.283.231l.08-.07c.072.123.136.25.191.382 0 0 0-.17.06-.17.061 0 .132.24.192.382 0 0 0-.171.05-.12.051.05.142.281.202.452 0 0-.06-.17.05-.17.111 0 .081.21.081.331 0-.05.06-.07.06-.07s.081.282.081.403c.08 0 .06-.161.08-.161.02 0 .091.282.142.443v-.282c.067.119.115.248.14.383.061-.121 0-.242.061-.333.08.121 0 .282 0 .403a1.622 1.622 0 0 0-.383-1.561c-.392-.453-1.007-.574-1.44-.907.08-.07.252 0 .332 0l.081.07c0-.07.06-.12.09-.07.03.05.132 0 .242 0l.141.111.05-.07s.202 0 .202.17l.08-.07a.171.171 0 0 1 .081.162s0-.071.06-.071c.061 0 .243.212.243.383l.06-.07s0 .21.08.281a1.32 1.32 0 0 0-.08-.715 1.269 1.269 0 0 0-.584-.373 2.911 2.911 0 0 0-1.551-.12c-.06 0 .13-.242.241-.333.111-.09.141 0 .192 0 .05 0-.08-.12 0-.171.096.013.19.036.282.07 0 0 0-.07-.06-.07h.281c.08 0-.06 0-.06-.07a.06.06 0 0 1 .09 0s.192 0 .192.17c0 0-.06-.17 0-.17s.191.211.282.282c0-.565-.836-.706-1.36-.615-.33.044-.615.248-.765.544a5.587 5.587 0 0 1-.151-.796.13.13 0 0 1-.05.121c-.091-.171-.061-.383-.142-.544-.08.161-.06.373-.14.544a.13.13 0 0 1-.051-.12c-.05.273-.131.54-.242.795a1.007 1.007 0 0 0-.584-.494 1.813 1.813 0 0 0-1.35.162.302.302 0 0 0-.191.403c.08-.071.13-.232.272-.283.14-.05 0 .121 0 .172 0-.121.14-.121.201-.172.06-.05.08 0 .08 0h-.06c.091 0 .202-.12.282 0h-.06c.09 0 .252-.11.332 0a.13.13 0 0 0-.05.121c.191-.16.332.07.383.212a.08.08 0 0 1 0 .07 2.498 2.498 0 0 0-1.692 0 .846.846 0 0 0-.655 1.068c.1.11.05 0 .13-.07Z" fill="#231f20" fill-rule="evenodd" data-name="Path 310"/><path d="M174.927 84.478c-2.599-1.813-5.379-.917-7.816.292l-.735.372-.736-.372c-2.437-1.209-5.217-2.105-7.816-.292a11.08 11.08 0 0 1 7.504 1.007l.212.1-.625.313-.362.12-.152-.2a1.843 1.843 0 0 0-.312-.353.453.453 0 0 0-.705.13c-.11.283.212.383.292.182a.151.151 0 0 1 .212-.08.897.897 0 0 1 .292.292l.09.11a2.96 2.96 0 0 1-1.007.323.363.363 0 0 1-.372-.433c.05-.554-.786-.695-.897.07-.11.766.655 1.229 1.45 1.108a5.589 5.589 0 0 0 1.109-.363l.19-.09c.09.127.194.242.313.342a.453.453 0 0 0 .705-.12c.101-.293-.221-.393-.302-.192a.141.141 0 0 1-.211.09 1.079 1.079 0 0 1-.262-.261l.211-.1 1.148-.545 1.149.544.211.1c-.071.103-.16.191-.262.263a.151.151 0 0 1-.211-.091c-.08-.201-.403-.1-.302.191a.453.453 0 0 0 .715.121c.112-.103.214-.218.302-.342l.191.09c.35.183.718.328 1.098.434.796.12 1.541-.403 1.45-1.108-.09-.706-.946-.625-.896-.071a.363.363 0 0 1-.372.433 2.96 2.96 0 0 1-1.008-.322l.09-.111a.897.897 0 0 1 .293-.292.151.151 0 0 1 .212.08c.08.202.402.101.292-.18a.453.453 0 0 0-.705-.132 1.824 1.824 0 0 0-.303.353l-.16.201-.333-.16-.625-.313.212-.1a11.08 11.08 0 0 1 7.544-1.038Z" fill="#231f20" fill-rule="evenodd" data-name="Path 311"/><path d="M187.72 95.678a2.105 2.105 0 0 1-.565-1.833l-3.737 1.007 8.975 7.786 1.43-1.682-6.104-5.278Z" fill="#fff" fill-rule="evenodd" data-name="Path 312"/><path d="m180.296 97.753 4.351 4.03a19.61 19.61 0 0 1-4.643 3.655l-2.075-1.903-2.075 2.226 3.263 3.807c1.088 1.924-1.53 3.163-1.53 3.163v.393c4.2 1.31 5.428-2.69 5.287-4.13 2.589-.685 7.313-5.751 7.313-5.751l-8.43-6.8-1.461 1.31Z" fill="#fff" fill-rule="evenodd" data-name="Path 313"/><path d="m170.294 106.164.715 2.669s-7.05 1.783-13.225-.413l1.904-6.376.765-.846-3.213-3.213-4.371 13.628s9.568 5.459 22.834.916l-2.84-8.38-2.57 2.015Z" fill="#fff" fill-rule="evenodd" data-name="Path 314"/><path d="M161.108 116.79a2.014 2.014 0 1 1 0 .1z" fill="#fff" fill-rule="evenodd" data-name="Ellipse 3"/><path d="M148.729 98.006a2.014 2.014 0 1 1 0 .1z" fill="#fff" fill-rule="evenodd" data-name="Ellipse 4"/><path d="M166.073 116.79a2.014 2.014 0 1 1 0 .1z" fill="#fff" fill-rule="evenodd" data-name="Ellipse 5"/><path d="m151.267 100.936-5.52 1.007.504-3.021h-3.173c.131 3.736-3.384 3.535-3.797 2.014-1.169-3.092 4.492-4.029 3.827-5.238-.664-1.208-9.145 2.146-6.043 7.736 1.823 2.84 5.086 1.33 5.086 1.33a31.636 31.636 0 0 0 8.703 5.882 32.231 32.231 0 0 0 3.112-7.262c.756-3.012-2.699-2.448-2.699-2.448Zm-.624 4.523-3.435-2.448s3.022-.302 3.535 0c1.42.786-.1 2.448-.1 2.448Z" fill="#fff" fill-rule="evenodd" data-name="Path 315"/><path d="M165.49 122.128c-24.451 0-44.263-19.814-44.259-44.254 0-24.434 19.815-44.246 44.255-44.242 24.433 0 44.245 19.815 44.241 44.255-.042 24.415-19.823 44.197-44.238 44.241Zm0-87.952c-24.155 0-43.727 19.574-43.725 43.718 0 24.14 19.574 43.712 43.718 43.71 24.14 0 43.712-19.573 43.71-43.717-.03-24.126-19.578-43.678-43.704-43.711Z" fill="#231f20" fill-rule="evenodd" data-name="Path 316"/><path d="M165.56 94.933c-15.624.039-28.318-12.602-28.344-28.226-.026-15.624 12.626-28.308 28.25-28.32 15.624-.014 28.297 12.649 28.297 28.273-.022 15.578-12.625 28.212-28.203 28.273Zm0-56.013c-15.327-.028-27.771 12.38-27.79 27.706-.019 15.327 12.396 27.764 27.723 27.773 15.326.01 27.756-12.413 27.756-27.74-.017-15.293-12.396-27.695-27.69-27.739Z" fill="#231f20" fill-rule="evenodd" data-name="Path 317"/><path d="m188.575 69.701 2.015 8.854.262-.06-2.005-8.794h1.088l-1.42-3.827h-3.687l-1.43 3.827h1.007l-.453 4.654-8.199-4.936-1.742-6.698a1.813 1.813 0 0 1 .453-1.672l.06-.05-2.095-9.72-1.259 2.508-1.007-2.387-1.27 2.014-1.188-2.477-1.43 2.437-1.199-2.427-1.53 2.447-1.612-2.357-1.23 2.559-1.298-2.287-2.488 9.79h.08c.509.24.775.806.635 1.35l-1.773 6.719L147.933 75l-1.007-5.299h1.108l-1.39-3.827h-3.677l-1.43 3.827h1.007l-1.964 9.922.252.05 2.015-9.972h3.887l1.008 5.47-2.549 1.783v9.065h.222v-8.894l10.294-7.494-5.409 20.588.252.07 7.333-27.709a1.38 1.38 0 0 0-.464-1.45 90.23 90.23 0 0 1 16.67-.07 2.146 2.146 0 0 0-.352 1.722l7.1 27.266.263-.07-5.268-20.146 10.294 6.114.816 8.582h.261l-.815-8.582v-.07l-2.196-1.37.503-4.805h3.878Zm-45.426-3.616h3.273l1.23 3.355h-5.732l1.229-3.355Zm16.367-14.07 1.22 2.155 1.248-2.609 1.612 2.317 1.42-2.297 1.199 2.438 1.43-2.438 1.188 2.468 1.25-2.015 1.087 2.458 1.158-2.377 1.874 8.723a85.425 85.425 0 0 0-4.553-.282l-1.621-4.311h-3.586l-1.43 4.28c-3.022.101-5.148.313-5.762.393l2.266-8.904Zm3.788 8.47 1.34-4.029h3.212l1.521 4.03c-2.286-.051-4.34-.051-6.083 0Zm21.716 5.6h3.303l1.23 3.355h-5.772l1.239-3.355Z" fill="#231f20" fill-rule="evenodd" data-name="Path 318"/></g></g></svg>