<svg xmlns="http://www.w3.org/2000/svg" width="87.042" height="88.496" viewBox="217.727 33.632 87.042 88.496"><g data-name="Group 3"><g data-name="Group 49"><path d="M286.836 60.59c-.63 0-1.26-.27-1.66-.76-2.35-2.91-4.5-5.06-6.57-6.57-.8-.65-1.04-1.9-.52-2.78l5.16-8.94c.25-.44.65-.73 1.12-.82.47-.09.95.03 1.35.34 4.51 3.27 8.33 7.05 11.36 11.24.31.39.44.87.36 1.34-.08.48-.36.89-.79 1.16l-8.73 5.49c-.31.2-.7.3-1.08.3Zm-8.4-9.93c-.42.73-.23 1.74.42 2.27 2.09 1.53 4.26 3.7 6.63 6.64.52.65 1.53.82 2.23.37l8.73-5.49c.33-.21.55-.52.61-.89.06-.36-.04-.73-.29-1.04-3.01-4.17-6.81-7.92-11.28-11.17-.31-.24-.68-.34-1.04-.27s-.66.29-.85.63l-5.16 8.95Z" fill="#b39965" fill-rule="evenodd" data-name="Path 217"/></g><g data-name="Group 50"><path d="M274.006 50.31c-.24 0-.48-.04-.71-.13-3.01-1.17-6.03-1.98-8.98-2.4-1.02-.16-1.84-1.12-1.84-2.15V35.31c0-.51.2-.96.56-1.28.36-.32.84-.45 1.34-.38 5.07.37 10.26 1.72 15.41 4.02.46.18.82.53.99.98.17.45.13.95-.1 1.4l-4.77 9.14c-.37.7-1.13 1.12-1.9 1.12Zm-9.87-16.28c-.32 0-.61.1-.83.3-.28.24-.43.59-.43.98v10.33c0 .84.67 1.62 1.5 1.75 2.98.42 6.03 1.24 9.06 2.42.78.3 1.72-.06 2.11-.8l4.77-9.14c.18-.35.21-.73.08-1.07-.13-.35-.4-.61-.77-.76-5.11-2.28-10.26-3.63-15.3-4-.06-.01-.13-.01-.19-.01Z" fill="#b39965" fill-rule="evenodd" data-name="Path 218"/></g><g data-name="Group 51"><path d="M235.586 60.61c-.37 0-.73-.09-1.05-.27l-8.94-5.16c-.44-.25-.73-.65-.82-1.12-.09-.47.03-.94.35-1.34 3.59-4.9 7.31-8.62 11.37-11.37.39-.31.87-.43 1.34-.35.48.08.88.37 1.15.8l5.37 8.69c.54.87.33 2.11-.47 2.76-2.62 2.06-4.77 4.21-6.57 6.57-.42.51-1.08.79-1.73.79Zm1.96-19.24c-.29 0-.58.1-.82.3-4.04 2.73-7.73 6.42-11.29 11.29v.01c-.24.31-.34.67-.27 1.02s.29.66.63.85l8.94 5.16c.72.42 1.74.23 2.27-.42 1.82-2.39 3.99-4.56 6.64-6.64.65-.52.82-1.53.38-2.24l-5.37-8.69c-.21-.33-.52-.55-.88-.62-.08-.02-.15-.02-.23-.02Z" fill="#b39965" fill-rule="evenodd" data-name="Path 219"/></g><g data-name="Group 52"><path d="M292.736 75.9c-1 0-1.93-.79-2.09-1.78-.42-3.15-1.23-6.17-2.39-8.98-.37-.96.05-2.16.94-2.67l8.94-5.16c.44-.25.93-.31 1.38-.15.45.16.81.5 1 .97 2.09 4.37 3.47 9.44 4.23 15.47a1.662 1.662 0 0 1-1.62 1.95l-10.32.35h-.07Zm-1.7-1.84c.13.82.91 1.47 1.75 1.44l10.32-.35c.39-.01.74-.18.97-.46.23-.28.33-.65.27-1.04-.75-6-2.13-11.02-4.2-15.37-.15-.37-.42-.64-.77-.75-.34-.12-.72-.07-1.06.12l-8.94 5.16c-.73.42-1.07 1.4-.77 2.18 1.19 2.83 2.01 5.88 2.43 9.07Z" fill="#b39965" fill-rule="evenodd" data-name="Path 220"/></g><g data-name="Group 53"><path d="M229.746 75.91h-.05l-10.22-.29c-.51-.01-.96-.23-1.27-.59-.31-.37-.44-.85-.37-1.35.75-6.35 2.08-11.33 4.07-15.21.18-.45.54-.8.99-.97a1.7 1.7 0 0 1 1.39.12l8.99 4.88c.9.49 1.34 1.67.97 2.63-1.28 3.23-2.06 6.17-2.4 8.98-.15 1-1.09 1.8-2.1 1.8Zm-6.3-18.11a1.244 1.244 0 0 0-1.18.83c-1.97 3.86-3.29 8.79-4.04 15.1-.06.39.05.76.28 1.04.24.28.58.44.98.45l10.22.28c.85.03 1.62-.63 1.75-1.45.34-2.84 1.13-5.8 2.42-9.07.3-.78-.05-1.74-.79-2.13l-8.99-4.88c-.21-.11-.43-.17-.65-.17Z" fill="#b39965" fill-rule="evenodd" data-name="Path 221"/></g><g data-name="Group 54"><path d="M248.466 50.31c-.77 0-1.54-.4-1.93-1.07l-5.16-8.94c-.25-.44-.31-.93-.15-1.38.15-.45.5-.8.96-.99 4.94-2.45 10.17-3.87 15.55-4.23.49-.07.96.05 1.33.36.37.31.58.76.6 1.26l.31 10.31c.03 1.03-.77 1.99-1.79 2.15-3.13.4-6.15 1.21-8.98 2.4-.24.09-.49.13-.74.13Zm9.53-16.24c-.07 0-.15.01-.22.02-5.34.35-10.52 1.76-15.42 4.19l-.01.01c-.36.15-.63.42-.74.76-.12.34-.07.72.12 1.06l5.16 8.94c.42.73 1.4 1.07 2.18.77 2.85-1.2 5.91-2.01 9.07-2.42.82-.13 1.47-.91 1.45-1.75l-.32-10.32c-.01-.39-.17-.74-.45-.97-.23-.19-.52-.29-.82-.29Z" fill="#b39965" fill-rule="evenodd" data-name="Path 222"/></g><g data-name="Group 55"><path d="M298.986 97.3c-.29 0-.58-.08-.86-.24l-8.94-5.16c-.89-.51-1.31-1.71-.94-2.66 1.15-2.79 1.96-5.81 2.39-8.98.16-1.02 1.12-1.84 2.15-1.84h10.32c.51 0 .96.2 1.27.56.31.36.44.84.37 1.34-.41 5.14-1.8 10.36-4.26 15.93-.18.47-.53.81-.98.97-.17.05-.34.08-.52.08Zm-10.37-7.92c-.3.78.05 1.76.77 2.18l8.94 5.16c.34.2.71.24 1.05.12.34-.12.6-.38.75-.75 2.44-5.54 3.83-10.71 4.23-15.82.06-.4-.04-.76-.27-1.03s-.58-.42-.97-.42h-10.33c-.84 0-1.62.67-1.75 1.5-.44 3.19-1.26 6.24-2.42 9.06Z" fill="#b39965" fill-rule="evenodd" data-name="Path 223"/></g><g data-name="Group 56"><path d="M223.506 97.3c-.18 0-.35-.03-.52-.09-.45-.16-.8-.5-.98-.98-2.64-5.59-4.03-10.81-4.26-15.94-.07-.48.06-.96.37-1.32.3-.36.75-.56 1.26-.56h10.32c1.02 0 1.99.82 2.15 1.84.37 2.9 1.18 5.92 2.4 8.98.37.96-.05 2.15-.94 2.67l-8.94 5.16c-.28.16-.57.24-.86.24Zm-4.13-18.49c-.39 0-.73.15-.97.42-.23.28-.33.64-.27 1.02.22 5.1 1.61 10.27 4.23 15.82.15.38.41.64.75.76s.71.08 1.05-.12l8.94-5.16c.73-.42 1.07-1.4.77-2.18-1.23-3.09-2.04-6.14-2.42-9.07-.13-.82-.92-1.49-1.75-1.49h-10.33Z" fill="#b39965" fill-rule="evenodd" data-name="Path 224"/></g><g data-name="Group 57"><path d="M237.456 89.6c-2.04-3.85-3.11-8.2-3.11-12.58 0-14.84 12.07-26.91 26.9-26.91 14.83 0 26.9 12.07 26.9 26.91 0 4.3-.99 8.41-2.93 12.22 0 0 2.74-5.26 2.54-12.22 0-14.62-11.89-26.52-26.51-26.52-14.62 0-26.51 11.9-26.51 26.52.07 7.62 2.72 12.58 2.72 12.58Z" fill="#008c44" fill-rule="evenodd" data-name="Path 225"/></g><g data-name="Group 58"><path d="M266.576 79.63c-.2-.12-.42-.21-.64-.29-.57-.19-1.17-.23-1.75-.13-.26.04-.51.11-.76.2l-.08.03c-.14.05-.27.11-.4.18-.12.06-.23.13-.35.2-.26.17-.52.35-.76.54-.19-1.4-.22-2.82-.08-4.23.6.39.43 1.5.31 1.82.51-.62.6-1.49.23-2.21a1.826 1.826 0 0 1 .62 1.23c.01.14.01.29 0 .43v.09c0 .03 0 0 0 0 .26-.52.26-1.13 0-1.65-.09-.18-.21-.35-.35-.49-.04-.05-.09-.09-.14-.13l.13.04c.12.04.24.11.35.19.22.17.38.4.47.67.08.19.11.4.11.61a1.6 1.6 0 0 0-.12-1.25c-.12-.2-.28-.37-.47-.49-.11-.07-.22-.12-.35-.16-.05-.02-.11-.03-.16-.04h.16c.12 0 .23 0 .35.02.17.03.33.1.47.2.13.09.24.22.32.36-.02-.26-.14-.5-.33-.67-.14-.12-.3-.21-.47-.26-.11-.03-.23-.05-.35-.05-.15 0-.29.02-.43.08.1-.16.26-.27.43-.32.11-.04.23-.05.35-.04.1 0 .19.03.28.07-.08-.1-.18-.18-.28-.24-.11-.06-.22-.1-.35-.12a.848.848 0 0 0-.82.43c-.04-.07-.08-.16-.11-.24-.09-.21-.15-.43-.18-.65-.04.22-.1.44-.18.65-.04.09-.08.17-.11.24a.866.866 0 0 0-1.21-.3c-.09.06-.18.14-.24.23a.88.88 0 0 1 1.06.3c-.48-.18-1.01-.04-1.36.35-.13.16-.2.35-.22.56.05-.1.12-.2.21-.27.31-.26.7-.37 1.09-.31-.49.09-.9.43-1.09.91-.1.33-.1.68 0 1.01v-.03c-.01-.69.43-1.29 1.06-1.48-.66.54-.86 1.5-.47 2.27-.11-.65.12-1.32.61-1.75-.37.71-.27 1.59.23 2.21-.12-.32-.29-1.42.31-1.82.14 1.41.11 2.83-.08 4.23-.46-.38-.96-.69-1.51-.93l-.19-.07c-.46-.16-.94-.23-1.42-.21-.51.02-1.01.16-1.47.39l-.17.07v.03l.13-.04c.48-.14.98-.19 1.47-.15.49.05.97.18 1.42.4.61.3 1.18.68 1.7 1.15-.53.54-1.1 1.04-1.7 1.51l-.05.03a.403.403 0 0 0-.41-.16c-.15.03-.26.15-.3.31-.03.12-.01.26.08.35.18.19.46.23.68.1.47-.22 1.12-.9 1.89-1.62l.19-.18.19.18c.35.32.66.64.95.92.12.11.23.21.35.31.15.13.31.25.47.34.22.18.53.18.76 0l.04-.03c.07-.1.09-.23.08-.35a.433.433 0 0 0-.11-.2.325.325 0 0 0-.18-.1.386.386 0 0 0-.41.16c-.06-.03-.11-.06-.17-.1-.13-.1-.29-.24-.47-.4l-.35-.32c-.23-.22-.47-.47-.76-.71.24-.21.5-.41.76-.6.11-.08.23-.16.35-.23.15-.1.31-.19.47-.27.28-.12.56-.22.86-.29a3.845 3.845 0 0 1 2.38.05v-.03" fill="#008c44" fill-rule="evenodd" data-name="Path 226"/><path d="M280.666 66.53a.91.91 0 0 0-.55-.73.89.89 0 0 0-.89.09l-.13.09c-.18.1-.4.1-.58 0l-.92-.53a.92.92 0 0 0-.96 0l-.85.56c-.09.05-.18.07-.28.07-.11 0-.21-.02-.3-.07a.904.904 0 0 0-.95-.05c-.31.17-.5.5-.5.85v7.56l-4.36-2.84c-.02-.01-.03-.02-.05-.02l-.62-5.53-.96-8.4c-.04-.43-.35-.78-.77-.89-.34-.08-.69 0-.96.21l-.26.21a.66.66 0 0 1-.8 0l-1.01-.79c-.38-.29-.91-.29-1.29 0l-1.07.83c-.21.16-.5.19-.74.05l-1.59-.98c-.4-.23-.9-.19-1.24.11l-.79.69c-.25.21-.61.21-.86 0-.3-.25-.71-.32-1.07-.18-.37.15-.62.49-.66.89l-1.14 13.76h-.05l-4.78 2.81v-7.39c.01-.45-.28-.85-.71-.99a.981.981 0 0 0-.82.1.63.63 0 0 1-.61.02l-1.04-.55c-.32-.17-.71-.16-1.02.04l-.77.47c-.2.12-.45.12-.65 0l-.18-.11c-.29-.18-.66-.19-.97-.04-.3.16-.51.45-.56.79 0 0-1.1 6.49-1.07 7l.89-4.1c2.37-.48 4.83-.31 7.11.48 0 0 .26 18.45.39 18.55V74.76l4.78-2.82s-1.3 18.76-1.16 18.83l1.58-19.09.44-5.18c.16-.1.31-.19.48-.28.16-.09.3-.16.45-.24.23-.12.47-.23.71-.33.17-.07.36-.15.55-.22l.21-.08c.18-.06.36-.12.54-.17.18-.06.36-.11.54-.15.26-.07.54-.13.81-.18.27-.05.52-.09.79-.11.26-.04.53-.06.79-.07h2.42c1.73.17 3.42.56 5.05 1.17.08.04.16.06.23.09l.42.17s3 24.06 3.14 24.06l-2.07-18.2 4.35 2.84s.27 13.6.4 13.6V70.01c2.22-.76 4.6-.92 6.9-.48l1.21 4.59c.05-.39-1.59-7.58-1.59-7.58m-32.37 3.09c-2.26-.77-4.68-.94-7.03-.49l.5-2.42c.02-.22.16-.41.36-.5a.6.6 0 0 1 .58.02l.17.11c.33.2.74.2 1.07 0l.75-.48c.19-.12.43-.12.63-.02l1.03.55c.32.17.7.16 1-.04a.619.619 0 0 1 .94.54v2.73Zm14.21-5.38-.32-.03c-.59-.03-1.19-.03-1.79 0v-1.48h2.12l-.01 1.51Zm1.53.21c-.18-.04-.37-.07-.55-.08-.18-.03-.36-.06-.55-.07h-.03v-1.75a.2.2 0 0 0-.2-.2h-2.52a.2.2 0 0 0-.2.2v1.71c-.08 0-.17 0-.24.02-.14 0-.28.02-.41.04-.13.02-.31.04-.45.06-.09.01-.19.03-.28.05-.2.04-.39.07-.56.11l-.34.08c-.14.03-.27.06-.4.11-.11.02-.21.05-.32.09-.15.04-.3.1-.46.15l-.36.14c-.12.04-.24.1-.36.16-.09.03-.18.07-.27.11-.1.05-.2.09-.29.15-.1.04-.2.09-.29.14-.2.1-.39.21-.58.32l.72-8.25c.01-.25.17-.47.4-.56.08-.03.17-.05.26-.05.16 0 .31.06.43.17.4.34.99.34 1.39 0l.78-.71c.22-.19.53-.21.77-.06l1.59.96c.37.23.85.2 1.19-.06l1.07-.84a.66.66 0 0 1 .8 0l1.02.79c.38.29.91.29 1.29 0l.29-.22c.18-.15.44-.19.65-.1.22.09.38.3.4.53l.89 8.04c-1.39-.55-2.82-.95-4.28-1.18m10.13 5.14v-2.82c-.01-.3.22-.55.52-.56h.03c.1 0 .2.03.28.09.31.19.7.19 1.01 0l.87-.53c.17-.1.38-.1.54 0l.92.54c.31.18.69.17.99-.03l.13-.09c.15-.1.35-.12.51-.04.19.07.31.24.34.44l.65 2.49c-2.27-.41-4.6-.24-6.79.48" fill="#008c44" fill-rule="evenodd" data-name="Path 227"/></g><g data-name="Group 60"><g data-name="Group 59"><path d="M228.176 85.29c.21.03.42.09.53-.15.7 1.18.62 3.13-.85 4.35a3.508 3.508 0 0 1-4.69-.21 3.488 3.488 0 0 1-.26-4.69c1.18-1.46 3.11-1.59 4.37-.88-.24.12-.17.33-.15.53a2.99 2.99 0 0 0-3.97.94c-.75 1.17-.6 2.68.37 3.67.97.99 2.49 1.17 3.65.44.67-.42 1.11-1.02 1.31-1.79.2-.77.08-1.5-.31-2.21Z" fill="#b39965" fill-rule="evenodd" data-name="Path 229"/><path d="M226.676 84.85c-.11.11-.22.2-.32.31-.07.07-.12.08-.22.05-.97-.29-1.93.27-2.13 1.26-.19.89.43 1.79 1.34 1.95.89.16 1.78-.47 1.92-1.35.04-.28.02-.55-.06-.82-.01-.05 0-.12.03-.16.1-.12.21-.23.32-.35.44.71.41 1.94-.49 2.72-.86.74-2.15.7-2.97-.08-.83-.81-.92-2.09-.19-2.98.77-.94 2-1 2.77-.55Z" fill="#b39965" fill-rule="evenodd" data-name="Path 230"/><path d="M228.486 83c.03.24.06.45.07.65.01.15.07.2.21.21.2.01.4.04.63.07-.04.04-.06.08-.09.1l-.82.82c-.07.07-.13.1-.22.07-.25-.07-.42.01-.6.2-.36.4-.75.76-1.13 1.14-.06.06-.09.11-.05.2a.922.922 0 1 1-1.77.5.906.906 0 0 1 .8-1.09c.14-.01.3.04.45.06.05.01.12 0 .15-.03.45-.44.9-.89 1.34-1.34.04-.04.06-.13.05-.18-.07-.26 0-.44.2-.61.28-.23.51-.49.78-.77Z" fill="#b39965" fill-rule="evenodd" data-name="Path 231"/></g></g><g data-name="Group 62"><g data-name="Group 61"><path d="m271.156 43.49 1.29 1.29.09.09c.06.08.06.16-.01.23-.07.08-.16.08-.24.01l-.09-.09-1.2-1.2c-.04-.04-.06-.08-.09-.13-.01.01-.03.02-.04.02 0 .05-.01.1-.01.15V45.24c-.01.12-.06.2-.18.19-.12 0-.17-.08-.17-.2V43.69c-.05.05-.09.08-.12.11l-1.2 1.2-.07.07c-.11.11-.2.12-.29.03-.08-.08-.08-.18.03-.29.22-.22.44-.44.65-.66.22-.22.44-.44.69-.68h-2.73c-.1-.01-.17-.07-.17-.18 0-.1.06-.16.16-.17.06-.01.12-.01.19-.01v-3.64c-.06 0-.12-.01-.18-.01-.11-.01-.17-.07-.17-.18 0-.11.06-.17.17-.17H270.496c.02-.15-.03-.33.18-.35.12-.01.16.06.2.35H273.916c.1.02.17.08.14.18-.01.06-.08.13-.14.16-.05.03-.12.01-.19.02v3.64c.05 0 .09.01.13.01.12 0 .21.05.21.18.01.11-.08.18-.23.18h-2.48c-.06.01-.11.01-.2.01Zm2-3.73h-4.97v3.18h4.97v-3.18Z" fill="#b39965" fill-rule="evenodd" data-name="Path 232"/><path d="M271.386 40.11h.69v2.48h-.69v-2.48Z" fill="#b39965" fill-rule="evenodd" data-name="Path 233"/><path d="M270.326 42.59v-1.68h.7v1.68h-.7Z" fill="#b39965" fill-rule="evenodd" data-name="Path 234"/><path d="M269.246 41.54h.69v1.06h-.69v-1.06Z" fill="#b39965" fill-rule="evenodd" data-name="Path 235"/></g></g><g data-name="Group 64"><g data-name="Group 63"><path d="M284.636 54.39V47.6c.05 0 .09-.01.14-.01h2.88c.07 0 .15.03.2.07.65.56 1.29 1.14 1.94 1.7.07.06.1.12.1.21v4.8c-1.75.02-3.5.02-5.26.02Zm.51-6.27v5.76h4.23v-3.99h-2.12v-1.77h-2.11Zm3.61 1.25c-.32-.32-.66-.65-.97-.97v.97h.97Z" fill="#b39965" fill-rule="evenodd" data-name="Path 236"/><path d="M288.876 50.75v.32h-3.22v-.32h3.22Z" fill="#b39965" fill-rule="evenodd" data-name="Path 237"/><path d="M285.656 51.75v-.32h3.22v.32h-3.22Z" fill="#b39965" fill-rule="evenodd" data-name="Path 238"/><path d="M285.656 52.43v-.32h3.22v.32h-3.22Z" fill="#b39965" fill-rule="evenodd" data-name="Path 239"/><path d="M285.656 53.11v-.32h3.22v.32h-3.22Z" fill="#b39965" fill-rule="evenodd" data-name="Path 240"/><path d="M286.756 50.07v.32h-1.09v-.32h1.09Z" fill="#b39965" fill-rule="evenodd" data-name="Path 241"/></g></g><g data-name="Group 66"><g data-name="Group 65"><path d="M298.346 70.94h-3c0-.29-.01-.57.01-.85 0-.07.08-.16.14-.21.82-.58 1.82-.58 2.64-.04.15.1.22.23.21.42v.68Z" fill="#b39965" fill-rule="evenodd" data-name="Path 242"/><path d="M298.686 70.36c.05-.74-.53-.9-1.05-1.13.21-.16.46-.24.7-.3.66-.15 1.26-.02 1.82.35.13.08.19.2.19.35v.73h-1.66Z" fill="#b39965" fill-rule="evenodd" data-name="Path 243"/><path d="M296.046 69.22c-1 .51-1 .51-1.05 1.13h-1.66c0-.28-.01-.55.01-.83.01-.08.09-.18.16-.23.78-.52 1.59-.57 2.43-.15.04.02.07.05.11.08Z" fill="#b39965" fill-rule="evenodd" data-name="Path 244"/><path d="M296.836 66.31c-.16 0-.32.01-.48-.01a.3.3 0 0 1-.19-.12c-.11-.15-.2-.31-.31-.46-.38-.51-.32-1.23.14-1.66.47-.44 1.18-.45 1.66-.02.48.42.55 1.14.19 1.65-.12.17-.22.35-.34.51-.03.05-.1.09-.16.09-.17.02-.34.02-.51.02Zm.01-.3c.12 0 .24.01.36 0 .04 0 .1-.03.12-.06.1-.14.2-.29.3-.43.23-.32.23-.76 0-1.09a.946.946 0 0 0-1.03-.37c-.38.11-.66.45-.69.84-.02.31.13.54.28.79.16.26.34.4.66.32Z" fill="#b39965" fill-rule="evenodd" data-name="Path 245"/><path d="M294.826 67.15c.42 0 .76.34.76.75s-.34.75-.75.75-.76-.34-.76-.76c0-.4.34-.74.75-.74Z" fill="#b39965" fill-rule="evenodd" data-name="Path 246"/><path d="M299.596 67.9a.749.749 0 1 1-1.5-.01c0-.42.34-.75.76-.75.42.01.74.35.74.76Z" fill="#b39965" fill-rule="evenodd" data-name="Path 247"/><path d="M296.836 67.73c.41 0 .75.33.75.74a.751.751 0 1 1-1.5 0c.01-.4.34-.74.75-.74Z" fill="#b39965" fill-rule="evenodd" data-name="Path 248"/><path d="M296.836 66.79h-.4c-.1 0-.17-.05-.15-.15.01-.06.09-.13.15-.13.28-.01.55-.01.83 0 .05 0 .1.09.15.14-.05.05-.1.13-.15.14-.14.01-.29 0-.43 0Z" fill="#b39965" fill-rule="evenodd" data-name="Path 249"/><path d="M296.546 66.99h.58c0 .15-.1.27-.26.28-.15.01-.28-.09-.32-.28Z" fill="#b39965" fill-rule="evenodd" data-name="Path 250"/><path d="M296.376 65.26c.17-.33.32-.63.48-.93.01 0 .02.01.03.01v.5c.17-.03.33-.06.53-.09-.17.32-.33.62-.49.91-.01 0-.02 0-.03-.01v-.49c-.18.03-.33.06-.52.1Z" fill="#b39965" fill-rule="evenodd" data-name="Path 251"/></g></g><g data-name="Group 68"><g data-name="Group 67"><path d="M251.076 42.67c-.14-.21-.2-.4-.19-.62 0-.03-.03-.07-.06-.08-.35-.15-.7-.29-1.06-.43-.04-.01-.1.02-.14.05-.22.21-.53.26-.8.14a.716.716 0 0 1-.41-.7c.02-.3.21-.55.5-.64.46-.15.93.18.96.68 0 .05.04.12.08.14.35.16.71.3 1.08.46.14-.23.35-.37.61-.43 0-.39 0-.78-.01-1.16 0-.04-.07-.09-.11-.12-.28-.14-.45-.42-.42-.71.02-.29.23-.55.51-.63.36-.11.75.08.88.43s-.02.74-.36.9c-.11.05-.14.1-.13.21.01.33 0 .65 0 .98 0 .08.02.12.1.14.22.06.38.2.51.4.37-.15.73-.3 1.09-.46.04-.02.06-.09.06-.14.02-.32.21-.58.5-.67.28-.09.6 0 .79.22.24.3.22.73-.07.99a.7.7 0 0 1-.97 0c-.08-.08-.14-.08-.23-.04-.31.14-.63.26-.95.39-.04.02-.08.07-.09.12-.05.19-.09.39-.13.6.28.27.6.58.9.88.16-.01.35-.06.52-.02.41.08.64.5.53.9a.718.718 0 1 1-1.36-.46c.04-.1.03-.16-.05-.23-.28-.27-.55-.55-.83-.82-.03-.02-.04-.03-.06-.03-.29.15-.58.16-.88.02-.03-.01-.1.02-.13.05-.26.26-.52.53-.79.78-.07.06-.07.11-.04.2.15.39-.04.81-.43.94a.722.722 0 0 1-.92-.45.681.681 0 0 1 .18-.74c.21-.21.47-.25.75-.15.1.04.15.02.22-.05.28-.29.57-.56.85-.84Z" fill="#b39965" fill-rule="evenodd" data-name="Path 252"/></g></g><g data-name="Group 70"><g data-name="Group 69"><path d="M226.706 69.14c-1.33.97-2.99.6-3.84-.53-.82-1.1-.7-2.63.3-3.59.99-.95 2.54-1.01 3.6-.13 1.07.88 1.37 2.48.43 3.76.12.12.24.24.37.36.03.02.08.03.12.02.19-.01.35.06.48.2l1.11 1.11c.26.26.26.66.02.91-.25.25-.64.25-.91-.01l-1.11-1.11a.657.657 0 0 1-.2-.48.26.26 0 0 0-.07-.17c-.09-.13-.19-.23-.3-.34Zm-1.67 0c1.2 0 2.18-.98 2.17-2.18 0-1.19-.98-2.17-2.17-2.17s-2.18.98-2.18 2.17c.01 1.21.98 2.18 2.18 2.18Z" fill="#b39965" fill-rule="evenodd" data-name="Path 253"/></g></g><g data-name="Group 72"><g data-name="Group 71"><path d="M296.186 84.15c.05-.37.05-.37-.29-.37h-.5v-.52h2.14v.52h-.8v.32c0 .03.04.06.07.07.24.06.48.09.71.17.23.08.44.2.67.31l.23-.23c.15-.15.32-.17.44-.05.12.12.11.28-.05.44l-.2.2c.81.87 1.12 1.87.82 3.02-.23.85-.75 1.48-1.53 1.89-1.58.83-3.54.13-4.23-1.51-.4-.95-.34-1.89.19-2.77.52-.9 1.32-1.37 2.33-1.49Zm2.8 3.05c0-1.4-1.12-2.51-2.52-2.51s-2.51 1.12-2.52 2.51c0 1.4 1.13 2.53 2.53 2.52a2.52 2.52 0 0 0 2.51-2.52Z" fill="#b39965" fill-rule="evenodd" data-name="Path 254"/><path d="M296.286 85.86h.35c0 .21.02.42 0 .62-.06.41.07.72.4.97.16.12.3.28.44.43-.09.09-.17.16-.26.25-.19-.19-.37-.4-.58-.57-.28-.23-.4-.5-.36-.86.03-.28.01-.56.01-.84Z" fill="#b39965" fill-rule="evenodd" data-name="Path 255"/><path d="M296.646 85.41c-.01.1-.07.16-.17.17-.1.01-.18-.08-.18-.18 0-.1.09-.19.19-.17.09.01.15.07.16.18Z" fill="#b39965" fill-rule="evenodd" data-name="Path 256"/><path d="M294.686 87.29c-.12 0-.21-.08-.2-.18.01-.1.07-.17.18-.17.1 0 .19.08.18.18-.01.1-.07.16-.16.17Z" fill="#b39965" fill-rule="evenodd" data-name="Path 257"/><path d="M298.236 86.94c.12 0 .21.08.2.18-.01.1-.06.17-.17.17-.1.01-.19-.08-.18-.18.01-.1.06-.17.15-.17Z" fill="#b39965" fill-rule="evenodd" data-name="Path 258"/><path d="M296.476 88.82c.09.01.16.06.17.17 0 .1-.08.19-.18.18-.1 0-.18-.09-.17-.19 0-.09.08-.16.18-.16Z" fill="#b39965" fill-rule="evenodd" data-name="Path 259"/></g></g><g data-name="Group 74"><g data-name="Group 73"><path d="M237.036 48.12h1.31v5.12h-1.31v-5.12Z" fill="#b39965" fill-rule="evenodd" data-name="Path 260"/><path d="M232.766 53.78h5.57v.52h-6.1v-6.18h.52c.01 1.88.01 3.77.01 5.66Z" fill="#b39965" fill-rule="evenodd" data-name="Path 261"/><path d="M236.476 53.24h-1.31v-3.35h1.31v3.35Z" fill="#b39965" fill-rule="evenodd" data-name="Path 262"/><path d="M233.316 51.49h1.31v1.76h-1.31v-1.76Z" fill="#b39965" fill-rule="evenodd" data-name="Path 263"/><path d="M233.526 50.98c-.09-.09-.16-.17-.23-.24.7-.7 1.41-1.4 2.14-2.14-.18-.16-.34-.3-.51-.44.01-.01.02-.03.03-.04h1.17v1.18c-.15-.16-.29-.32-.44-.48-.75.74-1.45 1.45-2.16 2.16Z" fill="#b39965" fill-rule="evenodd" data-name="Path 264"/></g></g><g data-name="Group 78"><g data-name="Group 75"><path d="M230.646 108.95a.494.494 0 0 0-.38-.13c-.15.01-.27.07-.37.18a.56.56 0 0 0-.15.39c.01.14.06.27.17.36.11.1.24.15.39.14.14-.01.27-.07.37-.18.1-.11.15-.24.15-.39a.526.526 0 0 0-.18-.37Z" fill="#292b6a" fill-rule="evenodd" data-name="Path 265"/><path d="m234.186 106.24-1.95 2.16-1.11-1-.45-.41c-.22-.24-.38-.54-.47-.9.71.17 1.28.06 1.7-.32.28-.25.41-.55.41-.91-.01-.39-.2-.8-.57-1.21-.48-.53-1.21-.9-2.2-1.11l-.61.44c.2.4.29 1.03.27 1.9-.59-.26-1.04-.42-1.33-.46-.49-.08-.9.03-1.21.32-.3.28-.43.63-.38 1.05.06.47.35.99.86 1.55.31.34.65.65 1.02.93l.54-.58c-.31-.24-.6-.51-.88-.82-.58-.64-.7-1.11-.37-1.42.16-.14.4-.17.73-.09.14.04.49.16 1.04.38.06.65.31 1.22.75 1.7l.59.55 1.89 1.7 2.5-2.77-.77-.68Zm-4.24-2.73c.56.14.94.33 1.16.57.17.18.25.37.24.55 0 .17-.08.32-.22.46-.23.2-.56.25-1.01.13-.02-.87-.08-1.44-.17-1.71Z" fill="#292b6a" fill-rule="evenodd" data-name="Path 266"/><path d="M231.246 109.7c-.15.01-.27.07-.37.18a.56.56 0 0 0-.15.39c.01.14.06.27.17.36.11.1.24.14.38.13.15-.01.27-.07.37-.18.1-.11.15-.24.15-.39a.494.494 0 0 0-.17-.36.535.535 0 0 0-.38-.13Z" fill="#292b6a" fill-rule="evenodd" data-name="Path 267"/></g><path d="m231.846 111.75.57-.61c.14.18.29.34.45.47.23.17.44.24.64.2.23-.05.47-.23.72-.55l2.33-3.03.83.64-2.3 2.98c-.81 1.05-1.73 1.17-2.77.38-.17-.15-.33-.31-.47-.48Z" fill="#292b6a" fill-rule="evenodd" data-name="Path 268"/><g data-name="Group 76"><path d="M247.866 112.71a.57.57 0 0 0-.28.31.53.53 0 0 0 .01.41c.06.14.16.23.3.28.14.05.27.04.4-.02a.53.53 0 0 0 .27-.3.53.53 0 0 0-.01-.41.53.53 0 0 0-.29-.28.507.507 0 0 0-.4.01Z" fill="#292b6a" fill-rule="evenodd" data-name="Path 269"/><path d="M247.676 112.42c.13.05.26.04.38-.02a.51.51 0 0 0 .26-.28c.05-.13.05-.26-.01-.38a.48.48 0 0 0-.28-.26.46.46 0 0 0-.38.02c-.12.06-.21.15-.25.28-.05.13-.05.26.01.38.05.13.14.21.27.26Z" fill="#292b6a" fill-rule="evenodd" data-name="Path 270"/><path d="M246.666 113.25c.14.05.27.04.4-.02s.22-.17.28-.3a.53.53 0 0 0-.01-.41.505.505 0 0 0-.69-.26.57.57 0 0 0-.28.31.53.53 0 0 0 .01.41c.05.12.15.22.29.27Z" fill="#292b6a" fill-rule="evenodd" data-name="Path 271"/></g><path d="m258.456 114.6-.55 4.74-1.38-.16.14-1.18c.14-1.21-.38-1.88-1.57-2.02-.65-.08-1.19.06-1.61.4-.38.31-.6.74-.66 1.27-.05.4-.2.63-.34.82-.34.44-3.84-.74-3.84-.74.16-.35.29-.67.39-.95.26-.71.44-1.42.53-2.15l-1.01-.23c-.1.7-.27 1.39-.53 2.08-.12.32-.25.61-.39.87l-.19-.07c-.35-.13-.56-.26-.65-.39-.09-.14-.08-.35.03-.64l.7-1.87-.94-.35-.63 1.68c-.24.63-.55.88-.95.73-.21-.08-.32-.21-.34-.39-.01-.15.05-.41.18-.76l.51-1.38-.98-.37-.51 1.36c-.13.36-.28.58-.43.67-.14.09-.34.09-.59 0a48 48 0 0 1-5.22-3.02l2.65-3.97-.87-.58-3.11 4.66c1.69 1.19 3.76 2.42 6.26 3.69.51.19.9.14 1.19-.15-.02.43.24.75.77.95.57.21 1.02.16 1.34-.15.03.24.14.43.32.59.17.14.46.29.9.49l4.75 1.44c.56.18 1.08-.13 1.28-.52.28.45.85.72 1.7.82l4.04.47.65-5.56-1.04-.13Zm-2.83 3.41-.12 1.05-.6-.07c-.79-.09-1.14-.51-1.05-1.24.04-.31.15-.56.34-.73.2-.18.44-.25.73-.22.55.06.79.46.7 1.21Z" fill="#292b6a" fill-rule="evenodd" data-name="Path 272"/><path d="m260.496 114.61 1.05-.02-.2 5.89-1.13-.06.28-5.81Z" fill="#292b6a" fill-rule="evenodd" data-name="Path 273"/><path d="m262.686 122.1-.01-.86c.42.06.83.07 1.24.03.91-.08 1.34-.47 1.28-1.17l-.01-.12-.62.05c-1.41.12-2.17-.43-2.28-1.66-.05-.56.08-1.04.38-1.43.34-.43.86-.68 1.55-.74.62-.05 1.18-.01 1.68.13l.3 3.56c.05.59-.1 1.07-.46 1.45-.39.42-1.01.67-1.85.74-.39.06-.79.06-1.2.02Zm2.26-4.97c-.21-.08-.46-.1-.77-.08-.29.02-.51.15-.67.36-.15.21-.21.47-.19.79.06.74.49 1.08 1.28 1.01l.51-.04-.16-2.04Z" fill="#292b6a" fill-rule="evenodd" data-name="Path 274"/><path d="M272.416 119.47a.499.499 0 0 0-.41-.06.562.562 0 0 0-.41.67c.04.15.12.26.25.34.13.08.27.1.41.06.15-.04.26-.12.33-.25.08-.13.1-.27.07-.42a.468.468 0 0 0-.24-.34Z" fill="#292b6a" fill-rule="evenodd" data-name="Path 275"/><path d="M281.116 112.89c-.55-1.09-1.36-1.36-2.43-.82-.59.3-.96.71-1.12 1.22-.14.47-.09.95.15 1.43.25.48.55.75.91.81-.06.16-5.88 2.27-5.91 2.18-.03-.2-.07-.41-.12-.63-.18-.76-.51-1.27-.97-1.54-.48-.28-1.15-.32-2-.12a7.2 7.2 0 0 0-.97.31l.19.8c.29-.11.58-.21.87-.28.54-.13.96-.1 1.26.09.28.18.49.52.61 1.03.04.19.08.38.11.6l-.52.13c-.84.2-1.44.52-1.79.96-.32.39-.42.85-.29 1.37.11.47.39.8.81.98.46.2 1.06.21 1.79.03l-.13-.82c-.42.1-.77.1-1.04-.01-.24-.1-.39-.26-.44-.49-.14-.57.28-.97 1.25-1.2 4.11-1.1 7.76-2.46 10.69-4.22l-.91-1.81Zm-.91 1.79c-.71.36-1.23.21-1.57-.45-.14-.28-.18-.55-.13-.8.06-.26.23-.45.49-.59.5-.26.93-.05 1.27.62l.48.94-.54.28Z" fill="#292b6a" fill-rule="evenodd" data-name="Path 276"/><path d="m280.296 109.16.89-.56 2.97 4.75-.89.56-2.97-4.75Z" fill="#292b6a" fill-rule="evenodd" data-name="Path 277"/><g data-name="Group 77"><path d="M290.686 109.32a.484.484 0 0 0-.39.15c-.11.1-.17.23-.18.38 0 .15.04.28.15.39.11.11.23.17.38.18.15 0 .28-.04.39-.15a.5.5 0 0 0 .17-.38.548.548 0 0 0-.14-.4.5.5 0 0 0-.38-.17Z" fill="#292b6a" fill-rule="evenodd" data-name="Path 278"/><path d="m294.576 103.99-4.31-3.58-.67.81 3.67 3.05-1.18 1.35-3.46-3.29-.72.76 3.46 3.29-1.25 1.25-1.97-2.14-.77.71 1.97 2.14-3.31 2.73-1.68-2.38-.85.6 2.21 3.12c.24.33.34.62.32.85-.02.2-.15.39-.38.55a2.1 2.1 0 0 1-.58.29l.42.73c.2-.08.4-.19.59-.32 1.07-.75 1.22-1.67.46-2.75l-.02-.02c3.26-2.48 6.01-5.08 8.05-7.75Z" fill="#292b6a" fill-rule="evenodd" data-name="Path 279"/></g></g><g data-name="Group 80"><g data-name="Group 79"><path d="M243.736 100.74c.14-.03.26-.1.34-.23a.529.529 0 0 0-.12-.75.509.509 0 0 0-.4-.08.54.54 0 0 0-.34.23c-.09.12-.12.26-.09.4.02.14.09.26.21.34.12.09.25.12.4.09Z" fill="#292b6a" fill-rule="evenodd" data-name="Path 280"/><path d="M244.816 101.49c.14-.03.26-.1.34-.23.09-.12.12-.26.1-.4a.46.46 0 0 0-.21-.34.509.509 0 0 0-.4-.08.54.54 0 0 0-.34.23c-.09.12-.12.26-.09.4.02.15.09.26.21.34.11.08.24.11.39.08Z" fill="#292b6a" fill-rule="evenodd" data-name="Path 281"/><path d="M247.716 103.86c-.59-.29-1.14-.34-1.65-.15-.46.17-.81.5-1.05.98-.24.49-.27.89-.1 1.22-.08-.08-.21-.16-.37-.24l-1.23-.74 1.56-2.24c-.29-.43-.69-.82-1.2-1.18-.57-.39-1.12-.53-1.66-.42-.48.1-.89.39-1.21.85-.7 1.01-.47 1.92.69 2.73 1.78 1.3 3.88 2.42 6.15 3.44l.88-1.81c.54-1.1.26-1.91-.81-2.44Zm-5.65.19c-.65-.46-.77-.99-.34-1.6.18-.26.4-.42.65-.49.26-.07.5-.02.74.15.25.17.43.36.54.55l-1.17 1.67-.42-.28Zm5.49 1.91-.47.95-.54-.27c-.71-.35-.91-.86-.58-1.52.14-.28.33-.48.56-.58.24-.11.5-.09.76.03.51.25.6.71.27 1.39Z" fill="#292b6a" fill-rule="evenodd" data-name="Path 282"/></g><path d="m257.786 104.92-.43 4.76-.98-.09-.67-.06c-.3-.07-.57-.2-.82-.39.62-.33 1-.76 1.12-1.31.08-.37.02-.69-.19-.97-.23-.32-.62-.54-1.17-.66-.7-.15-1.51-.03-2.43.37l-.24.71c.37.2.83.69 1.38 1.49-.53.05-1.14 0-1.86-.16l-.27-.06-.83-.36 1.57-4.51-.99-.35-1.84 5.29 1.92.73.21.05c.99.22 1.88.24 2.67.08.41.43.91.7 1.49.83l.89.1 2.02.18.51-5.58-1.06-.09Zm-3.51 3.59c-.62-.8-1.02-1.26-1.2-1.39.53-.21.96-.28 1.28-.21.24.05.41.16.52.31.1.14.12.31.08.5-.07.35-.3.61-.68.79Z" fill="#292b6a" fill-rule="evenodd" data-name="Path 283"/><path d="m259.966 105.06 1.05.02-.09 5.6-1.05-.02.09-5.6Z" fill="#292b6a" fill-rule="evenodd" data-name="Path 284"/><path d="M266.036 110.27c-1.4.22-2.2-.28-2.38-1.49-.09-.56.01-1.05.3-1.47.31-.45.79-.72 1.45-.82 1.18-.18 1.86.33 2.05 1.53l.31 1.99-1.73.26Zm-1.84-4.27a.534.534 0 0 1-.21-.35c-.02-.15.01-.28.09-.4.09-.12.2-.19.34-.21.15-.02.28.01.4.1.12.09.19.21.21.36.02.15-.01.28-.09.4-.09.12-.2.19-.35.22-.14 0-.27-.03-.39-.12Zm2.25 2.3c-.11-.74-.45-1.07-1.01-.99a.86.86 0 0 0-.64.4c-.14.22-.18.49-.13.8.11.73.56 1.04 1.35.92l.59-.09-.16-1.04Zm-.94-2.5a.534.534 0 0 1-.21-.35c-.02-.15.01-.28.09-.4.09-.12.2-.19.34-.21.15-.02.28.01.39.1.11.09.18.21.21.36.02.15-.01.28-.09.4s-.2.19-.34.21a.53.53 0 0 1-.39-.11Z" fill="#292b6a" fill-rule="evenodd" data-name="Path 285"/><path d="m268.376 111.84-.14-.83c.23 0 .44-.02.65-.08.28-.07.46-.2.55-.39.1-.21.1-.51 0-.91l-.98-3.7 1.01-.27.97 3.64c.34 1.28-.12 2.09-1.39 2.42-.23.08-.45.11-.67.12Z" fill="#292b6a" fill-rule="evenodd" data-name="Path 286"/><path d="m269.956 103.55.98-.36 1.92 5.26-.98.36-1.92-5.26Z" fill="#292b6a" fill-rule="evenodd" data-name="Path 287"/><path d="m273.736 107.25 2.12-1.04c-.56-1.04-1.45-1.43-2.66-1.17l-.16-.9c.9-.18 1.66-.13 2.27.15.65.3 1.18.88 1.6 1.74l.23.47-3.04 1.49-.36-.74Z" fill="#292b6a" fill-rule="evenodd" data-name="Path 288"/><path d="m278.716 103.83-.89.59-3.21-2.78.79-.69 3.31 2.88Zm-.78 2.22-.46-.69 2.05-1.36-2.64-3.98.87-.58 3.1 4.67-2.92 1.94Zm1.25 1.01c.16-.1.28-.17.37-.21-.11-.01-.2-.07-.28-.18a.644.644 0 0 1-.07-.59c.08-.24.27-.46.56-.66.17-.11.31-.19.42-.22l.22.5c-.17.08-.29.14-.36.19-.2.13-.25.26-.17.39.09.14.28.12.56-.07l.4-.27.31.47-1.67 1.11-.29-.46Z" fill="#292b6a" fill-rule="evenodd" data-name="Path 289"/><path d="m278.536 98.78.8-.67 3.61 4.28-.8.67-3.61-4.28Z" fill="#292b6a" fill-rule="evenodd" data-name="Path 290"/></g><g data-name="Group 84"><path d="M240.756 88.96c.27-.2.57-.37.88-.49l.56.52c-.36.14-.68.31-.95.51-.57.43-.71.84-.4 1.25.28.37.7.35 1.26-.07l1.82-1.36.44.59-.11.08c-.24.18-.48.33-.7.44.33-.1.65-.1.96 0 .29.1.53.27.71.51.23.31.32.61.26.91-.06.29-.25.55-.57.79-.35.26-.69.36-1.04.29-.39-.07-.77-.34-1.12-.81l-.51-.69c-.37.22-.73.29-1.07.2-.31-.08-.59-.28-.83-.61-.57-.73-.43-1.43.41-2.06Zm2.5 2.89c.35.47.74.55 1.17.23.39-.29.47-.58.24-.89-.18-.24-.46-.35-.85-.35-.37 0-.73.1-1.1.29l.54.72Zm2.16-1.47c.01-.1.07-.19.15-.25.08-.06.18-.09.28-.07.1.02.19.07.25.15.06.09.09.18.07.28a.381.381 0 0 1-.44.32.407.407 0 0 1-.25-.15.525.525 0 0 1-.06-.28Z" fill="#008c44" fill-rule="evenodd" data-name="Path 291"/><g data-name="Group 81"><path d="M245.706 95.75a.33.33 0 0 0-.27-.07c-.1.01-.18.06-.25.14-.07.08-.09.18-.08.28.01.1.06.18.14.25.08.07.17.09.28.08.1-.01.18-.06.25-.14.07-.08.09-.17.08-.28-.03-.11-.07-.2-.15-.26Z" fill="#008c44" fill-rule="evenodd" data-name="Path 292"/><path d="M246.156 96.25c-.1.01-.18.06-.25.14-.07.08-.09.18-.08.28.01.1.06.18.14.25.08.06.17.09.27.07.1-.01.18-.06.25-.14.07-.08.09-.17.08-.28a.375.375 0 0 0-.14-.25.33.33 0 0 0-.27-.07Z" fill="#008c44" fill-rule="evenodd" data-name="Path 293"/><path d="m248.056 93.7-1.26 1.59-1.26-1.07 2.3-2.43-.53-.5-2.7 2.85 2.4 2.06 1.63-2.05-.58-.45Z" fill="#008c44" fill-rule="evenodd" data-name="Path 294"/></g><path d="m251.976 94.71-1.53 2.97-1.13-.63 1.1-1.71-.62-.4-1.45 2.25c-.15.24-.31.38-.47.43-.14.04-.29.01-.46-.1-.12-.08-.24-.18-.34-.3l-.36.46c.11.11.23.21.36.3.77.49 1.41.35 1.91-.43l.01-.02 1.83.99 1.79-3.49-.64-.32Z" fill="#008c44" fill-rule="evenodd" data-name="Path 295"/><path d="m253.336 95.37.68.28-1.5 3.62-.68-.28 1.5-3.62Z" fill="#008c44" fill-rule="evenodd" data-name="Path 296"/><g data-name="Group 82"><path d="M256.096 97.26c.1.02.2.01.28-.05.09-.06.14-.13.16-.24.02-.1.01-.2-.04-.29a.364.364 0 0 0-.23-.17.35.35 0 0 0-.28.05c-.09.06-.14.13-.16.24-.02.1-.01.2.04.28.06.1.13.16.23.18Z" fill="#008c44" fill-rule="evenodd" data-name="Path 297"/><path d="M256.996 97.47c.1.02.19.01.28-.05.09-.06.14-.13.16-.24.02-.1.01-.2-.04-.29a.364.364 0 0 0-.23-.17.35.35 0 0 0-.28.05.36.36 0 0 0-.16.24c-.02.1-.01.2.04.28.05.1.13.16.23.18Z" fill="#008c44" fill-rule="evenodd" data-name="Path 298"/><path d="M260.186 97.89c.1.01.19-.02.27-.09.08-.07.12-.15.13-.26.01-.11-.02-.2-.08-.28a.363.363 0 0 0-.25-.13c-.1-.01-.19.02-.27.09-.08.07-.12.15-.13.26-.01.1.02.2.09.27.05.09.13.14.24.14Z" fill="#008c44" fill-rule="evenodd" data-name="Path 299"/><path d="M259.266 97.82c.1.01.19-.02.27-.09.08-.07.12-.15.13-.26.01-.11-.02-.2-.09-.28a.363.363 0 0 0-.25-.13c-.1-.01-.19.02-.27.09-.08.07-.12.16-.13.26-.01.1.02.2.09.27.06.09.14.14.25.14Z" fill="#008c44" fill-rule="evenodd" data-name="Path 300"/></g><path d="M266.056 97.23c.09.05.19.07.29.04a.37.37 0 0 0 .28-.46.374.374 0 0 0-.17-.24.422.422 0 0 0-.29-.05c-.1.02-.18.08-.24.17-.06.09-.07.19-.05.29.04.12.09.2.18.25Z" fill="#008c44" fill-rule="evenodd" data-name="Path 301"/><path d="M270.466 97.67c-.3-.8-.84-1.05-1.62-.76-.43.16-.72.42-.87.76-.14.32-.14.65-.01 1.01s.32.57.57.64c-.08 0-.18.03-.3.07l-.94.23-.47-1.98-.71.17.47 1.98-.76.18-.71.16c.14-.24.2-.53.17-.86-.04-.4-.16-.7-.38-.89-.22-.21-.53-.29-.91-.26-.3.03-.57.14-.8.34-.25.21-.42.48-.5.82h-.01c.02-.25.01-.52-.02-.82l-.13-1.44-.73.07.31 3.33h-1.55c.23-.16.36-.43.39-.81.03-.43-.06-.76-.27-1-.21-.23-.51-.36-.92-.39-.42-.03-.77.07-1.05.31s-.44.56-.47.96c-.02.32.04.58.2.77-.11-.03-.22-.04-.34-.05l-.89-.16.43-1.86c-.3-.2-.66-.35-1.09-.45-.47-.11-.87-.06-1.19.16-.29.19-.47.48-.56.87-.19.84.21 1.29 1.16 1.59 3.61 1.17 9.61.31 10 .19 1.88-.45 3.59-.95 5.01-1.55l-.51-1.33Zm-13.96 2.21-.35-.08c-.54-.13-.76-.44-.64-.95.05-.22.15-.38.29-.48.15-.11.32-.14.52-.1.21.05.37.12.49.22l-.31 1.39Zm3.46.27a.56.56 0 0 1-.45.16c-.41-.03-.59-.31-.55-.83.02-.24.1-.43.24-.55.12-.11.27-.16.44-.14.4.03.59.3.55.8-.02.24-.1.43-.23.56Zm3.75.11-.89.08c.02-.41.13-.78.33-1.09.2-.33.45-.51.74-.54.38-.03.59.19.63.67.04.53-.23.83-.81.88Zm5.97-1.41c-.52.19-.87.05-1.05-.44-.08-.21-.09-.39-.03-.56.06-.17.19-.3.38-.37.37-.14.65.04.83.53l.26.69-.39.15Z" fill="#008c44" fill-rule="evenodd" data-name="Path 302"/><g data-name="Group 83"><path d="M272.196 94.77c.02-.1 0-.19-.05-.28-.06-.09-.13-.15-.23-.17-.1-.02-.2-.01-.28.05a.32.32 0 0 0-.16.23c-.02.1 0 .19.05.28.06.09.13.15.23.17.1.02.19.01.28-.04.08-.06.13-.14.16-.24Z" fill="#008c44" fill-rule="evenodd" data-name="Path 303"/><path d="M272.526 94.56c.1.03.19.01.28-.04a.34.34 0 0 0 .16-.23c.02-.1 0-.19-.05-.28-.06-.09-.13-.15-.23-.17a.346.346 0 0 0-.28.04.32.32 0 0 0-.16.23.386.386 0 0 0 .28.45Z" fill="#008c44" fill-rule="evenodd" data-name="Path 304"/><path d="m275.166 93.27-.57.46 1.28 1.58-1.11.87-1.02-1.62c-.35.07-.72.22-1.09.45-.41.26-.65.57-.72.95-.06.34.01.68.22 1.01.46.73 1.11.83 1.95.3.97-.63 1.87-1.29 2.7-1.97l-1.64-2.03Zm-1.3 3.48c-.47.3-.85.22-1.12-.22a.828.828 0 0 1-.14-.55c.03-.18.13-.33.3-.44.18-.11.35-.18.5-.2l.76 1.21-.3.2Z" fill="#008c44" fill-rule="evenodd" data-name="Path 305"/><path d="M274.316 93.23c.1.01.2-.02.28-.09a.388.388 0 0 0 .06-.54.388.388 0 0 0-.54-.06.388.388 0 0 0-.06.54c.06.09.15.13.26.15Z" fill="#008c44" fill-rule="evenodd" data-name="Path 306"/></g><path d="M279.526 90.42c-.65-.55-1.25-.5-1.79.15-.29.35-.42.72-.38 1.1.04.34.2.64.49.88s.56.33.81.27c-.07.04-.15.11-.23.21l-.69.66-2.3-2.42-.53.51 2.7 2.84c1.11-1.03 2.12-2.12 3-3.28l-1.08-.92Zm-1.23 1.54a.788.788 0 0 1-.3-.48c-.03-.18.02-.35.15-.51.25-.3.58-.29.99.05l.57.47-.27.33c-.36.43-.74.48-1.14.14Z" fill="#008c44" fill-rule="evenodd" data-name="Path 307"/><path d="M277.216 88.4c.08-.13.15-.22.2-.27-.09.05-.18.04-.27-.03-.12-.08-.2-.2-.21-.36-.02-.19.04-.39.19-.62.08-.12.15-.2.21-.26l.28.27c-.07.07-.12.14-.18.22-.1.16-.1.27 0 .34.12.08.25.01.4-.21l.18-.27.32.21-.79 1.19-.33-.21Zm.79.05.41-.61 3.13 2.07-.41.61-3.13-2.07Z" fill="#008c44" fill-rule="evenodd" data-name="Path 308"/></g></g></svg>