<svg xmlns="http://www.w3.org/2000/svg" width="25.5" height="29.143" viewBox="330.119 194.105 25.5 29.143"><path d="M342.87 208.676a7.285 7.285 0 0 0 7.285-7.286 7.285 7.285 0 0 0-7.286-7.285 7.285 7.285 0 0 0-7.285 7.285 7.285 7.285 0 0 0 7.285 7.286Zm5.1 1.822h-.951a9.92 9.92 0 0 1-4.15.91c-1.48 0-2.88-.33-4.15-.91h-.95a7.652 7.652 0 0 0-7.65 7.65v2.368a2.733 2.733 0 0 0 2.732 2.732h20.036a2.733 2.733 0 0 0 2.732-2.732v-2.368a7.652 7.652 0 0 0-7.65-7.65Z" fill="#568593" fill-rule="evenodd" data-name="Icon awesome-user"/></svg>